# Blender v3.0.1 OBJ File: ''
# www.blender.org
mtllib model_mesh.mtl
o model_mesh
v -63.698597 114.528702 29.817497
v -90.646103 116.019997 39.232895
v -90.646103 114.528702 29.817495
v -63.698597 116.019997 20.401999
v -90.646103 116.019897 20.401997
v -90.646103 120.347801 11.908196
v -90.646103 120.347801 47.726795
v -63.698601 120.347900 47.726795
v -63.698597 116.019997 39.232895
v -63.698601 135.582397 58.795395
v -63.698597 120.347801 11.908197
v -63.698597 135.582397 0.839597
v -63.698597 169.647995 11.908097
v -63.698601 169.647995 47.726795
v -63.698597 127.088608 5.167397
v -90.646103 127.088501 5.167396
v -90.646103 135.582397 0.839596
v -90.646103 154.413406 0.839496
v -90.646103 154.413406 58.795296
v -90.646103 175.467102 29.817396
v -90.646103 127.088501 54.467495
v -90.646103 135.582397 58.795395
v -63.698601 127.088501 54.467495
v -63.698597 144.997894 -0.651703
v -90.646103 144.997894 -0.651704
v -63.698597 154.413406 0.839497
v -90.646103 144.997894 60.286594
v -63.698601 154.413406 58.795395
v -63.698601 144.997894 60.286594
v -63.698597 162.907196 5.167397
v -90.646103 162.907196 5.167396
v -90.646103 169.647995 11.908096
v -90.646103 162.907196 54.467495
v -90.646103 169.647995 47.726795
v -63.698601 162.907196 54.467495
v -63.698597 173.975800 20.401999
v -90.646103 173.975800 20.401997
v -63.698597 175.467102 29.817398
v -90.646103 173.975800 39.232895
v -63.698597 173.975800 39.232895
v 90.009102 116.019897 39.233006
v 63.061604 116.019997 39.233006
v 63.061604 114.528702 29.817501
v 90.009102 114.528702 29.817503
v 63.061604 116.019897 20.402002
v 63.061604 120.347801 11.908203
v 63.061699 135.582397 0.839603
v 63.061699 169.647903 11.908103
v 63.061695 169.647903 47.726803
v 63.061600 120.347801 47.726803
v 63.061600 135.582397 58.795403
v 90.009201 120.347801 47.726803
v 90.009201 120.347702 11.908204
v 90.009102 116.019897 20.402103
v 90.009201 154.413300 58.795403
v 90.009201 175.466995 29.817503
v 90.009201 135.582306 0.839604
v 90.009201 154.413300 0.839604
v 90.009201 127.088501 5.167504
v 63.061604 127.088501 5.167403
v 90.009201 127.088501 54.467606
v 63.061600 127.088501 54.467606
v 90.009201 135.582306 58.795403
v 90.009201 144.997803 -0.651696
v 63.061699 144.997803 -0.651697
v 90.009201 144.997803 60.286705
v 63.061699 154.413300 0.839603
v 63.061600 144.997894 60.286705
v 63.061600 154.413406 58.795403
v 63.061699 162.907196 5.167403
v 90.009201 169.647903 11.908204
v 90.009201 162.907196 5.167404
v 90.009201 169.647903 47.726803
v 90.009201 162.907196 54.467606
v 63.061600 162.907196 54.467606
v 63.061699 173.975800 20.402002
v 63.061699 175.466995 29.817501
v 90.009201 173.975693 20.402004
v 90.009201 173.975693 39.233006
v 63.061699 173.975800 39.233006
v -63.698597 -171.941605 29.817398
v -90.646103 -170.450302 39.232895
v -90.646103 -171.941605 29.817396
v -63.698597 -170.450394 20.401999
v -90.646103 -170.450394 20.401997
v -90.646103 -166.122498 47.726795
v -90.646103 -166.122604 11.908096
v -63.698601 -166.122498 47.726795
v -63.698597 -170.450302 39.232895
v -63.698601 -150.887894 58.795296
v -63.698597 -166.122498 11.908097
v -63.698597 -150.887894 0.839497
v -63.698597 -116.822304 11.908097
v -63.698601 -116.822304 47.726795
v -63.698597 -159.381805 5.167397
v -90.646202 -159.381805 5.167396
v -90.646202 -132.057007 0.839496
v -90.646103 -150.887894 0.839496
v -90.646202 -111.003304 29.817396
v -90.646202 -132.056900 58.795296
v -90.646202 -159.381805 54.467495
v -90.646202 -150.887894 58.795296
v -63.698601 -159.381805 54.467495
v -90.646202 -141.472504 -0.651704
v -63.698597 -141.472397 -0.651703
v -63.698597 -132.056900 0.839497
v -90.646202 -141.472397 60.286594
v -63.698601 -132.056900 58.795296
v -63.698601 -141.472397 60.286594
v -63.698597 -123.563103 5.167297
v -90.646202 -123.563103 5.167296
v -90.646202 -116.822403 11.908096
v -90.646202 -123.563103 54.467495
v -90.646202 -116.822403 47.726795
v -63.698601 -123.563103 54.467495
v -63.698700 -112.494499 20.401897
v -90.646202 -112.494499 20.401896
v -90.646202 -112.494499 39.232895
v -63.698700 -111.003197 29.817398
v -63.698597 -112.494499 39.232895
v 90.009102 -166.122498 47.726803
v 90.009102 -170.450394 39.233006
v 90.009102 -171.941696 29.817503
v 90.009102 -166.122604 11.908204
v 90.009102 -170.450394 20.402004
v 63.061604 -171.941605 29.817402
v 63.061604 -170.450394 20.402002
v 63.061604 -170.450302 39.232903
v 63.061604 -166.122604 11.908203
v 63.061604 -150.888000 0.839603
v 63.061604 -116.822403 11.908103
v 63.061600 -116.822403 47.726803
v 63.061600 -166.122498 47.726803
v 63.061600 -150.888000 58.795303
v 63.061604 -159.381805 5.167403
v 90.009102 -132.057007 58.795403
v 90.009201 -111.003304 29.817503
v 90.009102 -150.888000 0.839604
v 90.009201 -132.057007 0.839604
v 90.009102 -159.381805 5.167404
v 90.009102 -159.381897 54.467503
v 63.061600 -159.381805 54.467503
v 90.009102 -150.888000 58.795403
v 63.061604 -141.472504 -0.651697
v 63.061699 -132.057007 0.839503
v 90.009201 -141.472504 -0.651696
v 90.009102 -141.472504 60.286602
v 63.061600 -141.472504 60.286602
v 63.061600 -132.057007 58.795303
v 63.061604 -123.563103 5.167403
v 90.009201 -116.822403 11.908104
v 90.009102 -123.563202 5.167404
v 90.009102 -123.563202 54.467503
v 63.061600 -123.563103 54.467503
v 90.009201 -116.822403 47.726803
v 63.061699 -112.494598 20.401901
v 63.061699 -111.003304 29.817402
v 90.009201 -112.494598 20.402004
v 90.009201 -112.494598 39.232903
v 63.061699 -112.494598 39.232903
v -33.283199 -220.641403 20.420698
v -0.000001 -223.842102 20.420700
v -0.000002 -226.912003 39.533401
v 33.283199 -220.641403 20.420702
v 33.405602 -223.711304 39.551899
v -0.000003 -226.912003 63.945503
v -33.405602 -223.711304 39.551899
v -33.554104 -223.711304 63.945503
v -0.000003 -201.912598 79.916901
v 33.554096 -223.711304 63.945503
v -58.849998 -180.599304 16.160099
v -0.000001 -180.599396 16.160101
v 58.849998 -180.599304 16.160103
v -65.895798 -207.954895 66.958603
v -70.546799 -206.998901 39.093296
v 70.546799 -206.998901 39.093304
v 65.895798 -207.954895 66.958603
v -59.792004 -200.369797 78.344902
v 59.791996 -200.369797 78.344902
v -73.909103 -206.307693 18.948996
v 73.909103 -206.307693 18.949003
v -84.658203 -189.421402 38.459297
v -84.658203 -180.599304 69.184998
v 84.658203 -180.599304 69.184998
v 84.658203 -189.421402 38.459305
v -84.658203 -192.154404 17.458096
v 84.658203 -192.154404 17.458103
v -0.000004 -180.599396 89.070602
v -66.191010 -178.586197 87.336304
v -70.938301 -178.094498 85.187599
v 70.938301 -178.094498 85.187599
v 66.190994 -178.586197 87.336304
v -91.193604 -180.599304 16.160097
v 91.193604 -180.599304 16.160105
v -91.193604 -177.703293 36.948895
v 91.193604 -177.703293 36.948902
v -0.000001 -99.716400 14.482300
v -0.000004 -138.181396 100.550400
v -58.849998 -177.703400 36.948795
v -58.849998 -99.716301 14.482197
v -58.850002 -171.357193 52.149296
v 58.849998 -99.716301 14.482203
v 58.849998 -177.703400 36.948803
v 58.849995 -171.357193 52.149303
v -84.676201 -165.780396 76.182198
v -91.193604 -156.250107 62.362698
v -91.193604 -171.357193 52.149296
v 91.193604 -171.357193 52.149303
v 91.193604 -156.250107 62.362705
v 84.676201 -165.780396 76.182198
v -25.712404 -136.005798 100.036400
v -66.279106 -132.573395 99.225502
v 66.279091 -132.573395 99.225502
v 25.712397 -136.005798 100.036400
v -72.605606 -129.561905 89.483002
v -84.676201 -138.181305 80.847000
v 84.676201 -138.181305 80.847000
v 72.605591 -129.561905 89.483002
v -58.850002 -156.250107 62.362698
v -58.850002 -139.977798 65.153900
v -58.850002 -111.346199 53.509598
v 58.849995 -111.346199 53.509605
v 58.849995 -139.977798 65.153900
v 58.849995 -156.250107 62.362705
v -91.193604 -139.977798 65.153893
v 91.193604 -139.977798 65.153908
v -91.193497 -88.505302 69.650192
v -91.193497 -123.104500 61.904396
v -58.850002 -123.104599 61.904396
v 58.849995 -123.104599 61.904404
v 91.193497 -123.104500 61.904404
v 91.193497 -88.505302 69.650208
v 24.868095 -134.573898 100.681297
v -0.000004 -137.270493 100.936600
v -24.868103 -134.573898 100.681297
v -73.104004 -83.927597 92.175903
v -84.675301 -87.202797 82.626404
v 84.675301 -87.202797 82.626404
v 73.103989 -83.927597 92.175903
v -0.000005 -129.420898 104.279404
v -25.197704 -126.700508 104.282799
v -55.617603 -130.156601 100.824898
v 55.617596 -130.156601 100.824898
v 25.197697 -126.700508 104.282799
v -63.516605 -127.333595 101.567101
v -64.991104 -122.404198 103.544601
v -67.021111 -79.108101 117.074203
v -71.558006 -116.348198 97.180298
v 67.021095 -79.108101 117.074203
v 64.991089 -122.404198 103.544601
v 63.516598 -127.333595 101.567101
v 71.557991 -116.348198 97.180298
v -0.000006 -76.886597 126.651299
v -28.854506 -76.675003 125.614601
v 28.854494 -76.675003 125.614601
v -91.193497 -111.346199 53.509598
v 91.193497 -111.346199 53.509605
v -59.131306 -76.136902 123.195801
v 59.131298 -76.136902 123.195801
v -69.892204 -81.382896 105.322098
v 69.892189 -81.382896 105.322098
v -91.193497 -103.999702 40.213997
v -58.849998 -103.999702 40.213997
v 58.849998 -103.999702 40.214005
v 91.193497 -103.999702 40.214005
v -91.193497 -15.717100 39.658195
v -86.274002 -15.717100 14.482296
v -86.274002 -99.716301 14.482296
v 86.274002 -99.716301 14.482304
v 86.274002 -15.717100 14.482304
v 91.193497 -15.717100 39.658203
v -0.000001 -15.717100 14.482300
v -91.193497 -15.717100 74.859589
v 91.193497 -15.717100 74.859604
v -73.328705 -64.503601 93.850700
v -84.344109 -15.717100 88.386703
v 84.344093 -15.717100 88.386703
v 73.328690 -64.503601 93.850700
v -71.472809 -64.425301 101.263000
v 71.472794 -64.425301 101.263000
v -61.806908 -14.547400 137.967804
v 61.806892 -14.547400 137.967804
v -0.000006 -24.225800 143.456299
v -25.594406 -23.475901 141.851898
v 25.594395 -23.475901 141.851898
v -52.033108 -19.686501 141.163300
v 52.033092 -19.686501 141.163300
v -73.893105 -15.717100 98.057297
v 73.893089 -15.717100 98.057297
v -0.000006 -15.717100 146.190201
v -51.434608 -14.926300 142.678406
v 51.434593 -14.926300 142.678406
v -86.274002 45.514999 14.482296
v -0.000001 45.514999 14.482300
v 86.274002 45.514999 14.482304
v -91.193497 45.514999 39.272594
v 91.193497 45.514999 39.272602
v -91.193497 45.514999 79.241989
v 91.193497 45.514999 79.242004
v -84.012810 45.514999 94.025803
v -74.168304 13.062900 100.469002
v 84.012794 45.514999 94.025803
v 74.168289 13.062900 100.469002
v -0.000007 45.514999 153.043900
v -61.568607 17.001699 141.422104
v -61.493008 27.009001 142.517807
v -61.353207 45.514999 144.544006
v -50.256207 45.514999 149.201294
v 50.256191 45.514999 149.201294
v 61.353191 45.514999 144.544006
v 61.568592 17.001699 141.422104
v 61.492992 27.009001 142.517807
v -74.314705 28.372999 101.751999
v 74.314690 28.372999 101.751999
v -74.478607 45.514999 103.188599
v 74.478592 45.514999 103.188599
v -86.274002 108.801399 14.482296
v -0.000001 108.801300 14.482300
v 58.849899 108.801399 14.482303
v -58.849899 108.801399 14.482297
v 86.274002 108.801399 14.482304
v -91.193497 110.692398 38.862297
v 91.193497 110.692398 38.862305
v -91.193497 114.205597 84.158089
v 91.193497 114.205597 84.158104
v -83.790611 115.514503 101.032997
v 83.790596 115.514503 101.032997
v -61.982307 109.762802 138.557297
v -74.970604 116.264397 110.701302
v 61.982292 109.762802 138.557297
v 74.970589 116.264397 110.701302
v -47.645309 119.055702 144.514801
v -62.050407 116.725899 137.908493
v -0.000006 119.055702 146.688995
v 47.645294 119.055702 144.514801
v 62.050392 116.725899 137.908493
v 58.826401 181.266998 19.549103
v -58.826401 181.266998 19.549099
v -0.000001 181.272705 19.577299
v -58.849899 110.692398 38.862297
v 58.849899 110.692398 38.862305
v -74.936806 123.850403 111.388199
v -66.562706 116.564697 128.406693
v 74.936790 123.850403 111.388199
v 66.562691 116.564697 128.406693
v -91.193497 118.316902 52.713097
v -58.849903 118.316902 52.713097
v -58.849903 134.809494 62.938492
v 58.849895 134.809494 62.938499
v 58.849895 118.316902 52.713104
v 91.193497 118.316902 52.713104
v -91.193504 191.544800 89.693291
v -91.193497 152.951294 64.257889
v -91.193497 134.809494 62.938492
v 91.193497 134.809494 62.938499
v 91.193489 191.544800 89.693306
v 91.193497 152.951294 64.257904
v -74.680206 181.330597 116.592400
v -83.790504 185.702896 109.408096
v 83.790489 185.702896 109.408096
v 74.680191 181.330597 116.592400
v -72.058105 121.698502 117.267097
v -66.941505 141.744705 129.653595
v 72.058090 121.698502 117.267097
v 66.941490 141.744705 129.653595
v -54.423206 137.976700 136.485992
v 54.423191 137.976700 136.485992
v -49.663109 135.117706 139.321304
v -48.790707 135.280701 139.656296
v -45.759609 134.663895 139.976807
v 48.790691 135.280701 139.656296
v 45.759594 134.663895 139.976807
v 49.663094 135.117706 139.321304
v -0.000006 134.410202 142.117798
v -70.366508 159.264999 123.872902
v 70.366493 159.264999 123.872902
v -0.000005 195.860703 123.823601
v -58.849903 152.951294 64.257896
v -58.849903 170.103607 55.351894
v 58.849895 170.103607 55.351902
v 58.849895 152.951294 64.257896
v -59.213707 147.021698 131.974792
v -53.067104 195.860703 121.515900
v 53.067097 195.860703 121.515900
v 59.213692 147.021698 131.974792
v -64.982910 166.175507 124.458397
v -68.536705 183.300293 118.536903
v 64.982895 166.175507 124.458397
v 68.536690 183.300293 118.536903
v -91.193497 170.103607 55.351894
v 91.193497 170.103607 55.351902
v -91.193497 179.669296 41.827995
v -58.826401 179.669296 41.827995
v 58.826401 179.669296 41.828003
v 91.193497 179.669296 41.828003
v -86.915199 220.119507 33.480396
v -86.915199 181.264404 24.099596
v -91.193497 219.906403 51.517395
v 91.193497 219.906403 51.517403
v 86.915199 181.264404 24.099604
v 86.915199 220.119507 33.480404
v -67.082603 227.677597 30.792196
v -0.000001 227.677505 30.792200
v 67.082603 227.677597 30.792204
v -67.809509 185.949707 118.157600
v -62.469505 220.836502 116.370499
v -83.790504 218.452393 113.482903
v 67.809494 185.949707 118.157600
v 62.469498 220.836502 116.370499
v 83.790489 218.452393 113.482903
v -91.193398 219.492996 86.494995
v 91.193398 219.492996 86.495010
v -0.000005 220.836395 118.678101
v -65.978104 223.116806 86.269402
v 65.978104 223.116806 86.269402
v -69.486702 234.916901 53.881397
v -85.077599 229.906799 53.925495
v 85.077599 229.906799 53.925503
v 69.486702 234.916901 53.881405
v -0.000004 223.116806 86.269402
v -0.000002 234.916901 53.881401
v -66.802208 -79.590897 95.053497
v -74.333305 -76.989899 99.124901
v -69.033707 -88.233200 95.420898
v -76.564804 -85.632301 99.492401
v -72.304810 -84.764198 92.282303
v -78.174110 -76.194603 108.370399
v -79.835907 -82.163300 106.268303
v -98.377304 -80.745300 99.613693
v -94.704407 -78.511398 96.353790
v -79.835907 -82.163300 96.353798
v -70.643005 -78.795502 90.771004
v -78.174110 -76.194603 94.842499
v -95.365204 -78.511398 104.921593
v -97.080406 -71.906799 106.532791
v -100.617111 -71.251801 99.290489
v -96.304611 -71.906799 94.842491
v 76.564789 -85.632301 99.492401
v 74.333290 -76.989899 99.124901
v 69.033691 -88.233200 95.420898
v 66.802193 -79.590897 95.053497
v 72.304794 -84.764198 92.282303
v 98.377289 -80.745300 99.613708
v 79.835892 -82.163300 106.268303
v 78.174095 -76.194603 108.370399
v 79.835892 -82.163300 96.353798
v 94.704391 -78.511398 96.353806
v 70.642990 -78.795502 90.771004
v 78.174095 -76.194603 94.842499
v 95.365189 -78.511398 104.921608
v 97.080391 -71.906799 106.532806
v 100.617096 -71.251801 99.290504
v 96.304596 -71.906799 94.842506
vn 0.0000 -0.9877 0.1564
vn 0.0000 -0.9877 -0.1564
vn -1.0000 -0.0000 0.0000
vn 1.0000 0.0000 0.0000
vn 0.0000 -0.8910 -0.4540
vn 0.0000 -0.8910 0.4540
vn 0.0000 -0.7071 -0.7071
vn 0.0000 -0.7071 0.7071
vn 0.0000 -0.4540 -0.8910
vn 0.0000 -0.4540 0.8910
vn 0.0000 -0.1564 -0.9877
vn 0.0000 -0.1564 0.9877
vn 0.0000 0.1564 -0.9877
vn -0.0000 0.1564 0.9877
vn 0.0000 0.4540 -0.8910
vn -0.0000 0.4540 0.8910
vn 0.0000 0.7071 -0.7071
vn 0.0000 0.7071 0.7071
vn 0.0000 0.8910 -0.4540
vn 0.0000 0.8910 0.4540
vn 0.0000 0.9877 -0.1564
vn 0.0000 0.9877 0.1564
vn -1.0000 0.0000 0.0001
vn 1.0000 0.0000 -0.0001
vn -0.0943 -0.9829 -0.1582
vn -0.0945 -0.9829 -0.1579
vn -0.0944 -0.9829 -0.1580
vn 0.0945 -0.9829 -0.1579
vn 0.0943 -0.9829 -0.1582
vn 0.0944 -0.9829 -0.1580
vn 0.0943 -0.9829 -0.1583
vn 0.0951 -0.9955 -0.0003
vn 0.0952 -0.9955 -0.0002
vn 0.0954 -0.9954 -0.0000
vn -0.0952 -0.9955 -0.0002
vn -0.0951 -0.9955 -0.0003
vn -0.0954 -0.9954 0.0000
vn -0.0943 -0.9829 -0.1583
vn -0.0950 -0.9955 -0.0006
vn -0.0513 -0.5377 0.8416
vn 0.0513 -0.5377 0.8416
vn 0.0950 -0.9955 -0.0006
vn -0.0000 -0.0981 -0.9952
vn -0.0036 -0.1081 -0.9941
vn -0.0062 -0.1124 -0.9936
vn -0.0108 -0.1126 -0.9936
vn 0.0062 -0.1124 -0.9936
vn 0.0036 -0.1081 -0.9941
vn 0.0108 -0.1126 -0.9936
vn -0.4104 -0.9111 0.0372
vn -0.4382 -0.8989 -0.0027
vn -0.4043 -0.9026 -0.1474
vn 0.4043 -0.9026 -0.1474
vn 0.4104 -0.9111 0.0372
vn 0.4382 -0.8989 -0.0027
vn -0.2904 -0.7172 0.6335
vn -0.0362 -0.5538 0.8319
vn 0.0362 -0.5538 0.8319
vn 0.2904 -0.7172 0.6335
vn -0.0020 -0.1067 -0.9943
vn -0.3334 -0.9425 0.0233
vn 0.0020 -0.1067 -0.9943
vn 0.3334 -0.9425 0.0233
vn -0.7771 -0.6200 0.1084
vn -0.6089 -0.4697 0.6393
vn -0.8074 -0.5670 0.1628
vn 0.6089 -0.4697 0.6393
vn 0.8074 -0.5670 0.1628
vn 0.7771 -0.6200 0.1084
vn -0.0021 -0.1067 -0.9943
vn -0.7979 -0.5978 0.0778
vn 0.0021 -0.1067 -0.9943
vn 0.7979 -0.5978 0.0778
vn 0.0347 -0.3935 0.9187
vn 0.0357 -0.3911 0.9197
vn 0.0343 -0.3944 0.9183
vn -0.0357 -0.3911 0.9197
vn -0.0347 -0.3935 0.9187
vn -0.0343 -0.3944 0.9183
vn -0.0360 -0.3903 0.9200
vn -0.4067 -0.4481 0.7961
vn -0.6190 -0.4966 0.6084
vn 0.4067 -0.4481 0.7961
vn 0.6190 -0.4966 0.6084
vn 0.0360 -0.3903 0.9200
vn 0.0000 -0.1116 -0.9937
vn -0.8721 -0.4851 0.0636
vn -0.8747 -0.4802 0.0663
vn -0.8717 -0.4859 0.0632
vn 0.8747 -0.4802 0.0663
vn 0.8721 -0.4851 0.0636
vn 0.8717 -0.4859 0.0632
vn -0.8727 -0.4693 0.1348
vn -0.8750 -0.4794 0.0668
vn 0.8727 -0.4693 0.1348
vn 0.8750 -0.4794 0.0668
vn 0.0000 -0.0207 -0.9998
vn 0.0411 -0.2488 0.9677
vn 0.0398 -0.2511 0.9672
vn 0.0332 -0.2611 0.9647
vn -0.0398 -0.2511 0.9672
vn -0.0411 -0.2488 0.9677
vn -0.0332 -0.2611 0.9647
vn 0.0000 0.9904 -0.1380
vn -0.6985 -0.3062 0.6468
vn -0.9306 -0.1572 0.3305
vn -0.9471 -0.1797 0.2658
vn -0.9177 -0.3667 0.1531
vn 0.9177 -0.3667 0.1531
vn 0.9471 -0.1797 0.2658
vn 0.9306 -0.1572 0.3305
vn 0.6985 -0.3062 0.6468
vn -0.0405 -0.2500 0.9674
vn -0.4210 -0.2277 0.8780
vn 0.0405 -0.2500 0.9674
vn 0.4210 -0.2277 0.8780
vn -0.5347 -0.0927 0.8399
vn -0.6227 -0.1304 0.7716
vn -0.8468 -0.0757 0.5265
vn 0.6227 -0.1304 0.7716
vn 0.5347 -0.0927 0.8399
vn 0.8468 -0.0757 0.5265
vn 0.0000 0.9228 -0.3853
vn 0.0000 0.5601 -0.8284
vn -0.9190 -0.0662 0.3887
vn -0.9188 -0.0665 0.3891
vn -0.9192 -0.0656 0.3883
vn 0.9188 -0.0666 0.3891
vn 0.9190 -0.0662 0.3887
vn 0.9192 -0.0656 0.3883
vn -0.9187 -0.0668 0.3892
vn 0.0000 0.1691 -0.9856
vn 0.9187 -0.0668 0.3892
vn -0.9216 -0.0338 0.3866
vn -0.0000 -0.1891 -0.9820
vn 0.9216 -0.0338 0.3866
vn 0.0516 -0.3888 0.9199
vn 0.0518 -0.3905 0.9191
vn 0.0512 -0.3863 0.9209
vn -0.0518 -0.3905 0.9191
vn -0.0516 -0.3888 0.9199
vn -0.0512 -0.3863 0.9209
vn -0.0510 -0.3850 0.9215
vn 0.0510 -0.3850 0.9215
vn -0.5547 -0.0551 0.8302
vn -0.8929 -0.0157 0.4501
vn -0.6317 -0.0270 0.7747
vn 0.8929 -0.0157 0.4501
vn 0.6317 -0.0270 0.7747
vn 0.5547 -0.0551 0.8302
vn 0.0519 -0.3913 0.9188
vn -0.0519 -0.3913 0.9188
vn -0.0510 -0.3849 0.9215
vn 0.0510 -0.3849 0.9215
vn -0.0504 -0.4172 0.9074
vn -0.0557 -0.4173 0.9071
vn -0.0449 -0.4171 0.9077
vn 0.0557 -0.4173 0.9071
vn 0.0504 -0.4172 0.9074
vn 0.0449 -0.4171 0.9077
vn -0.8121 -0.1949 0.5500
vn -0.8481 -0.2149 0.4843
vn -0.5219 -0.2766 0.8069
vn 0.5219 -0.2766 0.8069
vn 0.0526 -0.3853 0.9213
vn 0.0571 -0.3862 0.9207
vn 0.8481 -0.2149 0.4843
vn 0.8121 -0.1949 0.5500
vn -0.0581 -0.4027 0.9135
vn 0.0581 -0.4027 0.9135
vn -0.9853 -0.0208 0.1698
vn 0.9853 -0.0208 0.1698
vn 0.0370 -0.3938 0.9185
vn 0.0410 -0.3920 0.9191
vn 0.0421 -0.3915 0.9192
vn -0.0410 -0.3920 0.9191
vn -0.0370 -0.3938 0.9185
vn -0.0421 -0.3915 0.9192
vn -0.0591 -0.3890 0.9193
vn -0.0596 -0.3949 0.9168
vn -0.0588 -0.3868 0.9203
vn 0.0588 -0.3868 0.9203
vn -0.0359 -0.3942 0.9183
vn -0.0597 -0.3952 0.9166
vn 0.0597 -0.3952 0.9166
vn 0.0359 -0.3942 0.9183
vn -0.0000 -0.5811 -0.8139
vn -0.0804 -0.3810 0.9211
vn 0.0804 -0.3810 0.9211
vn -0.9710 -0.0094 0.2390
vn 0.9710 -0.0094 0.2390
vn 0.0000 -0.8753 -0.4836
vn -0.9811 -0.0009 -0.1936
vn -0.9819 -0.0003 -0.1893
vn -0.9816 -0.0009 -0.1909
vn -0.9822 0.0000 -0.1878
vn -0.0000 -0.9864 -0.1642
vn 0.9822 0.0000 -0.1878
vn 0.9819 -0.0003 -0.1893
vn 0.9816 -0.0009 -0.1909
vn 0.9811 -0.0009 -0.1936
vn -0.0000 0.0000 -1.0000
vn -0.8918 -0.0323 0.4513
vn -0.8917 -0.0323 0.4515
vn -0.8918 -0.0323 0.4512
vn 0.8917 -0.0323 0.4515
vn 0.8918 -0.0323 0.4513
vn 0.8918 -0.0323 0.4512
vn -0.6221 -0.0744 0.7794
vn -0.6402 -0.0588 0.7660
vn 0.6402 -0.0588 0.7660
vn 0.6221 -0.0744 0.7794
vn -0.9695 -0.0322 0.2431
vn 0.9695 -0.0322 0.2431
vn -0.9644 -0.0077 0.2644
vn -0.5458 -0.2178 0.8091
vn 0.9644 -0.0077 0.2644
vn 0.5458 -0.2178 0.8091
vn -0.0685 -0.3042 0.9501
vn -0.0660 -0.2970 0.9526
vn -0.0685 -0.3033 0.9504
vn -0.0365 -0.2897 0.9564
vn 0.0660 -0.2970 0.9526
vn 0.0685 -0.3042 0.9501
vn 0.0685 -0.3033 0.9504
vn 0.0365 -0.2897 0.9564
vn -0.0814 -0.2864 0.9547
vn 0.0814 -0.2864 0.9547
vn -0.0671 -0.2949 0.9532
vn -0.4094 -0.2296 0.8830
vn 0.0671 -0.2949 0.9532
vn 0.4094 -0.2296 0.8830
vn -0.6775 -0.0694 0.7322
vn -0.6818 -0.0651 0.7287
vn -0.6775 -0.0710 0.7321
vn 0.6777 -0.0680 0.7322
vn 0.6775 -0.0694 0.7322
vn 0.6775 -0.0710 0.7321
vn -0.9563 -0.0321 0.2905
vn -0.9564 -0.0309 0.2905
vn -0.9565 -0.0284 0.2905
vn 0.9564 -0.0309 0.2905
vn 0.9563 -0.0321 0.2905
vn 0.9565 -0.0284 0.2905
vn -0.0694 -0.3028 0.9505
vn 0.0694 -0.3028 0.9505
vn -0.0691 -0.3005 0.9513
vn 0.0691 -0.3005 0.9513
vn -0.9812 -0.0003 -0.1928
vn 0.9812 -0.0003 -0.1928
vn -0.9805 -0.0009 -0.1967
vn 0.9805 -0.0009 -0.1967
vn -0.8990 -0.0334 0.4367
vn -0.8990 -0.0332 0.4367
vn -0.8989 -0.0353 0.4366
vn -0.6791 -0.0667 0.7310
vn -0.6840 -0.0632 0.7267
vn 0.8990 -0.0332 0.4367
vn 0.8990 -0.0334 0.4367
vn 0.8989 -0.0353 0.4366
vn 0.6776 -0.0678 0.7323
vn 0.6876 -0.0643 0.7232
vn 0.6896 -0.0660 0.7212
vn 0.6840 -0.0632 0.7267
vn -0.9554 -0.0268 0.2942
vn 0.9554 -0.0268 0.2942
vn -0.0697 -0.1107 0.9914
vn -0.0754 -0.1059 0.9915
vn -0.0694 -0.1110 0.9914
vn 0.0754 -0.1059 0.9915
vn 0.0697 -0.1107 0.9914
vn 0.0694 -0.1110 0.9914
vn -0.4145 -0.0960 0.9050
vn -0.3854 -0.0916 0.9182
vn -0.0758 -0.1055 0.9915
vn 0.0758 -0.1055 0.9915
vn 0.3854 -0.0916 0.9182
vn 0.4145 -0.0960 0.9050
vn -0.9543 -0.0310 0.2972
vn 0.9543 -0.0310 0.2972
vn -0.9539 -0.0287 0.2986
vn -0.6914 -0.0669 0.7194
vn -0.6914 -0.0670 0.7194
vn 0.6914 -0.0669 0.7194
vn 0.9539 -0.0287 0.2986
vn -0.9535 -0.0314 0.2997
vn 0.9535 -0.0314 0.2997
vn -0.9530 -0.0275 0.3017
vn -0.9528 -0.0259 0.3024
vn 0.9530 -0.0275 0.3017
vn 0.9528 -0.0259 0.3024
vn -0.6913 -0.0683 0.7193
vn 0.6913 -0.0683 0.7193
vn -0.9808 -0.0002 -0.1952
vn 0.9808 -0.0002 -0.1952
vn -0.9803 -0.0012 -0.1977
vn 0.9803 -0.0012 -0.1977
vn -0.8991 -0.0313 0.4367
vn 0.8991 -0.0313 0.4367
vn -0.9143 -0.0331 0.4037
vn -0.9143 -0.0333 0.4037
vn -0.9140 -0.0375 0.4039
vn -0.6912 -0.0698 0.7193
vn 0.9143 -0.0333 0.4037
vn 0.9143 -0.0331 0.4037
vn 0.9140 -0.0375 0.4039
vn 0.6912 -0.0698 0.7193
vn -0.9530 0.0189 0.3025
vn -0.9096 -0.0501 0.4124
vn -0.7336 -0.0768 0.6752
vn 0.9530 0.0189 0.3025
vn 0.9096 -0.0501 0.4124
vn 0.7336 -0.0768 0.6752
vn -0.3857 0.0819 0.9190
vn 0.3857 0.0819 0.9190
vn -0.4254 0.0726 0.9021
vn -0.0455 0.0651 0.9968
vn -0.0760 0.0858 0.9934
vn 0.0455 0.0651 0.9968
vn 0.0760 0.0858 0.9934
vn 0.4254 0.0726 0.9021
vn -0.0003 0.0700 -0.9975
vn -0.0000 0.0697 -0.9976
vn 0.0000 0.0699 -0.9976
vn 0.0003 0.0700 -0.9975
vn 0.0000 0.0701 -0.9975
vn 0.0000 0.9970 -0.0773
vn -1.0000 0.0003 -0.0001
vn -1.0000 0.0016 0.0001
vn -1.0000 0.0003 -0.0000
vn 1.0000 0.0017 0.0001
vn 1.0000 0.0003 -0.0001
vn 1.0000 0.0003 -0.0000
vn -0.9088 -0.0336 0.4159
vn -0.8617 0.1453 0.4862
vn -0.9031 0.0311 0.4283
vn 0.8617 0.1453 0.4862
vn 0.9088 -0.0336 0.4159
vn 0.9031 0.0311 0.4283
vn 0.0000 0.8760 -0.4822
vn -1.0000 -0.0002 -0.0002
vn 1.0000 -0.0003 -0.0001
vn -0.9145 -0.0289 0.4034
vn 0.9145 -0.0289 0.4034
vn -0.7353 -0.0579 0.6753
vn -0.6439 -0.0940 0.7593
vn -0.6432 -0.0911 0.7603
vn -0.6431 -0.0907 0.7603
vn -0.9393 -0.0406 0.3407
vn 0.9393 -0.0406 0.3407
vn 0.6431 -0.0910 0.7603
vn 0.6439 -0.0940 0.7593
vn 0.6431 -0.0907 0.7603
vn 0.7353 -0.0579 0.6753
vn -0.9025 -0.0348 0.4292
vn 0.9025 -0.0348 0.4292
vn -0.4356 0.2149 0.8741
vn -0.4160 0.2185 0.8827
vn -0.4180 0.2178 0.8820
vn -0.4191 0.2096 0.8834
vn 0.4180 0.2178 0.8820
vn 0.4160 0.2185 0.8827
vn 0.4191 0.2096 0.8834
vn 0.4356 0.2149 0.8741
vn 0.0000 0.5269 -0.8499
vn -0.3867 0.2394 0.8906
vn -0.0434 0.2845 0.9577
vn -0.0426 0.2852 0.9575
vn -0.0437 0.2838 0.9579
vn -0.0436 0.2840 0.9578
vn 0.0427 0.2851 0.9575
vn 0.0434 0.2845 0.9577
vn 0.0437 0.2838 0.9579
vn 0.0436 0.2840 0.9578
vn 0.3867 0.2394 0.8906
vn -0.0432 0.2851 0.9575
vn 0.0432 0.2851 0.9575
vn 0.0431 0.2851 0.9575
vn -0.0431 0.2851 0.9575
vn 0.0000 0.0725 -0.9974
vn -1.0000 0.0016 0.0003
vn 1.0000 0.0016 0.0003
vn -0.0417 0.2839 0.9579
vn 0.0417 0.2839 0.9579
vn -0.4110 0.2127 0.8865
vn 0.4110 0.2127 0.8865
vn -0.4111 0.2121 0.8865
vn 0.4111 0.2121 0.8865
vn -0.3931 0.2309 0.8900
vn -0.4355 0.2121 0.8748
vn -0.3615 0.2309 0.9033
vn -0.3592 0.2288 0.9048
vn -0.3670 0.2387 0.8991
vn 0.3931 0.2309 0.8900
vn 0.3591 0.2289 0.9048
vn 0.3615 0.2309 0.9033
vn 0.3670 0.2387 0.8991
vn 0.4355 0.2121 0.8748
vn 0.0000 -0.4608 -0.8875
vn -0.3818 0.2214 0.8973
vn 0.3818 0.2214 0.8973
vn -0.3600 0.2301 0.9041
vn -0.3614 0.2368 0.9018
vn 0.3600 0.2301 0.9041
vn 0.3614 0.2368 0.9018
vn 0.0000 -0.8164 -0.5775
vn -1.0000 0.0027 0.0002
vn 1.0000 0.0027 0.0002
vn -0.9717 0.0554 -0.2297
vn -0.9717 0.0554 -0.2295
vn -0.9717 0.0554 -0.2296
vn -0.9717 0.0553 -0.2298
vn 0.0000 -0.9974 -0.0715
vn -0.0150 -0.9955 -0.0932
vn 0.9717 0.0554 -0.2295
vn 0.9717 0.0554 -0.2297
vn 0.9717 0.0554 -0.2296
vn 0.9717 0.0553 -0.2298
vn 0.0150 -0.9955 -0.0932
vn -0.1556 0.2318 -0.9602
vn 0.1556 0.2318 -0.9602
vn -0.2047 0.1959 -0.9590
vn 0.0000 0.2354 -0.9719
vn 0.0000 0.2351 -0.9720
vn 0.0002 0.2352 -0.9719
vn -0.0000 0.2349 -0.9720
vn -0.0002 0.2352 -0.9719
vn 0.2047 0.1959 -0.9590
vn -0.3595 0.2282 0.9048
vn -0.2794 0.0917 0.9558
vn -0.1394 0.0486 0.9890
vn -0.6440 -0.0945 0.7592
vn 0.3595 0.2282 0.9048
vn 0.2794 0.0917 0.9558
vn 0.1394 0.0486 0.9890
vn 0.6440 -0.0945 0.7592
vn -0.9642 -0.0328 0.2632
vn -0.9313 0.0414 0.3620
vn 0.9313 0.0414 0.3620
vn 0.9642 -0.0328 0.2632
vn -0.0363 0.1885 0.9814
vn -0.0426 0.2016 0.9785
vn 0.0426 0.2016 0.9785
vn 0.0363 0.1885 0.9814
vn -0.1412 0.9870 0.0768
vn -0.1226 0.9884 0.0892
vn 0.1412 0.9870 0.0768
vn 0.1226 0.9884 0.0892
vn -0.2964 0.9244 0.2399
vn -0.1301 0.9270 0.3518
vn -0.8538 0.5206 0.0062
vn 0.2964 0.9244 0.2399
vn 0.1301 0.9270 0.3518
vn 0.8538 0.5206 0.0062
vn -0.8173 0.5449 -0.1874
vn 0.8173 0.5449 -0.1874
vn -0.3741 0.8491 -0.3729
vn 0.3741 0.8491 -0.3729
vn 0.0021 0.9975 0.0711
vn -0.0000 0.9972 0.0751
vn -0.0000 0.9975 0.0702
vn -0.0021 0.9975 0.0711
vn 0.0000 0.9971 0.0755
vn 0.0000 0.9396 0.3423
vn 0.0000 0.9542 -0.2992
vn -0.2913 0.9037 -0.3137
vn 0.2913 0.9037 -0.3137
vn 0.4528 -0.0792 0.8881
vn 0.4528 -0.0791 0.8881
vn -0.4781 -0.7928 -0.3780
vn 0.8953 -0.2146 0.3904
vn 0.7291 -0.3989 0.5562
vn -0.1645 -0.7174 -0.6770
vn -0.1840 -0.7492 -0.6363
vn -0.2014 -0.9079 0.3676
vn -0.4955 -0.0810 -0.8648
vn -0.0564 -0.2314 -0.9712
vn -0.0559 -0.2345 -0.9705
vn -0.0565 -0.2302 -0.9715
vn -0.2396 -0.8387 0.4890
vn -0.1573 -0.2888 0.9444
vn -0.1460 -0.2701 0.9517
vn -0.8226 -0.1757 0.5408
vn -0.5956 -0.1673 -0.7857
vn 0.2866 0.9547 -0.0797
vn 0.2866 0.9547 -0.0798
vn -0.7040 -0.3161 -0.6360
vn -0.0557 -0.2355 -0.9703
vn -0.8625 -0.3197 0.3923
vn 0.2132 0.9769 -0.0113
vn 0.2132 0.9769 -0.0157
vn 0.2132 0.9769 -0.0146
vn 0.2205 0.9754 0.0077
vn 0.2132 0.9770 -0.0098
vn 0.2294 0.9701 0.0796
vn -0.4528 -0.0791 0.8881
vn -0.4528 -0.0792 0.8881
vn 0.4781 -0.7928 -0.3780
vn 0.2014 -0.9079 0.3676
vn -0.7291 -0.3989 0.5562
vn -0.8953 -0.2146 0.3904
vn 0.1840 -0.7492 -0.6363
vn 0.1645 -0.7174 -0.6770
vn 0.4955 -0.0810 -0.8648
vn 0.0559 -0.2345 -0.9705
vn 0.0564 -0.2314 -0.9712
vn 0.0566 -0.2302 -0.9715
vn 0.2396 -0.8387 0.4890
vn 0.1573 -0.2888 0.9444
vn 0.1460 -0.2701 0.9517
vn 0.8226 -0.1757 0.5408
vn 0.5956 -0.1673 -0.7857
vn -0.2866 0.9547 -0.0797
vn 0.0557 -0.2355 -0.9703
vn 0.7040 -0.3161 -0.6360
vn 0.8625 -0.3197 0.3923
vn -0.2132 0.9769 -0.0113
vn -0.2132 0.9770 -0.0098
vn -0.2132 0.9769 -0.0146
vn -0.2132 0.9769 -0.0157
vn -0.2205 0.9754 0.0077
vn -0.2294 0.9701 0.0796
usemtl None
s 1
f 1//1 2//1 3//1
f 4//2 1//2 3//2
f 5//2 4//2 3//2
f 6//3 5//3 3//3
f 2//3 7//3 3//3
f 7//3 6//3 3//3
f 8//4 9//4 1//4
f 10//4 8//4 1//4
f 11//4 12//4 1//4
f 4//4 11//4 1//4
f 12//4 13//4 1//4
f 13//4 14//4 1//4
f 14//4 10//4 1//4
f 9//1 2//1 1//1
f 6//5 11//5 5//5
f 11//5 4//5 5//5
f 9//6 7//6 2//6
f 8//6 7//6 9//6
f 15//7 11//7 6//7
f 16//7 15//7 6//7
f 17//3 16//3 6//3
f 18//3 17//3 6//3
f 7//3 19//3 6//3
f 19//3 20//3 6//3
f 20//3 18//3 6//3
f 15//4 12//4 11//4
f 8//8 21//8 7//8
f 22//3 19//3 7//3
f 21//3 22//3 7//3
f 10//4 23//4 8//4
f 23//8 21//8 8//8
f 12//9 15//9 16//9
f 17//9 12//9 16//9
f 23//10 22//10 21//10
f 10//10 22//10 23//10
f 24//11 12//11 17//11
f 25//11 24//11 17//11
f 18//3 25//3 17//3
f 26//4 13//4 12//4
f 24//4 26//4 12//4
f 10//12 27//12 22//12
f 27//3 19//3 22//3
f 28//4 29//4 10//4
f 14//4 28//4 10//4
f 29//12 27//12 10//12
f 26//13 24//13 25//13
f 18//13 26//13 25//13
f 29//14 19//14 27//14
f 28//14 19//14 29//14
f 30//15 26//15 18//15
f 31//15 30//15 18//15
f 32//3 31//3 18//3
f 20//3 32//3 18//3
f 30//4 13//4 26//4
f 28//16 33//16 19//16
f 34//3 20//3 19//3
f 33//3 34//3 19//3
f 14//4 35//4 28//4
f 35//16 33//16 28//16
f 13//17 30//17 31//17
f 32//17 13//17 31//17
f 35//18 34//18 33//18
f 14//18 34//18 35//18
f 36//19 13//19 32//19
f 37//19 36//19 32//19
f 20//3 37//3 32//3
f 38//4 14//4 13//4
f 36//4 38//4 13//4
f 14//20 39//20 34//20
f 39//3 20//3 34//3
f 38//4 40//4 14//4
f 40//20 39//20 14//20
f 38//21 36//21 37//21
f 20//21 38//21 37//21
f 40//22 20//22 39//22
f 38//22 20//22 40//22
f 41//1 42//1 43//1
f 44//1 41//1 43//1
f 45//2 44//2 43//2
f 46//3 45//3 43//3
f 47//3 46//3 43//3
f 48//3 47//3 43//3
f 49//3 48//3 43//3
f 50//3 51//3 43//3
f 42//3 50//3 43//3
f 51//3 49//3 43//3
f 52//4 41//4 44//4
f 53//4 52//4 44//4
f 54//4 53//4 44//4
f 45//2 54//2 44//2
f 46//5 54//5 45//5
f 46//5 53//5 54//5
f 52//6 42//6 41//6
f 52//6 50//6 42//6
f 55//4 52//4 53//4
f 56//4 55//4 53//4
f 57//4 58//4 53//4
f 59//4 57//4 53//4
f 58//4 56//4 53//4
f 46//7 60//7 53//7
f 60//7 59//7 53//7
f 47//3 60//3 46//3
f 61//8 62//8 50//8
f 52//8 61//8 50//8
f 62//3 51//3 50//3
f 63//4 61//4 52//4
f 55//4 63//4 52//4
f 47//9 59//9 60//9
f 47//9 57//9 59//9
f 63//10 51//10 62//10
f 61//10 63//10 62//10
f 64//4 58//4 57//4
f 47//11 65//11 57//11
f 65//11 64//11 57//11
f 55//4 66//4 63//4
f 66//12 51//12 63//12
f 67//3 65//3 47//3
f 48//3 67//3 47//3
f 66//12 68//12 51//12
f 69//3 49//3 51//3
f 68//3 69//3 51//3
f 67//13 64//13 65//13
f 67//13 58//13 64//13
f 55//14 68//14 66//14
f 55//14 69//14 68//14
f 70//15 58//15 67//15
f 48//3 70//3 67//3
f 71//4 56//4 58//4
f 72//4 71//4 58//4
f 70//15 72//15 58//15
f 56//4 73//4 55//4
f 73//4 74//4 55//4
f 74//16 69//16 55//16
f 74//16 75//16 69//16
f 75//3 49//3 69//3
f 48//17 72//17 70//17
f 48//17 71//17 72//17
f 73//18 49//18 75//18
f 74//18 73//18 75//18
f 76//19 71//19 48//19
f 49//3 77//3 48//3
f 77//3 76//3 48//3
f 78//4 56//4 71//4
f 76//19 78//19 71//19
f 79//20 80//20 49//20
f 73//20 79//20 49//20
f 80//3 77//3 49//3
f 56//4 79//4 73//4
f 76//21 77//21 78//21
f 77//21 56//21 78//21
f 56//22 80//22 79//22
f 56//22 77//22 80//22
f 81//1 82//1 83//1
f 84//2 81//2 83//2
f 85//2 84//2 83//2
f 82//3 86//3 83//3
f 86//3 87//3 83//3
f 87//3 85//3 83//3
f 88//4 89//4 81//4
f 90//4 88//4 81//4
f 91//4 92//4 81//4
f 84//4 91//4 81//4
f 92//4 93//4 81//4
f 93//4 94//4 81//4
f 94//4 90//4 81//4
f 89//1 82//1 81//1
f 91//5 84//5 85//5
f 87//5 91//5 85//5
f 89//6 86//6 82//6
f 88//6 86//6 89//6
f 95//7 91//7 87//7
f 96//7 95//7 87//7
f 97//3 98//3 87//3
f 99//3 97//3 87//3
f 100//3 99//3 87//3
f 98//3 96//23 87//3
f 86//3 100//3 87//3
f 95//4 92//4 91//4
f 88//8 101//8 86//8
f 102//3 100//3 86//3
f 101//3 102//3 86//3
f 90//4 103//4 88//4
f 103//8 101//8 88//8
f 92//9 95//9 96//9
f 98//9 92//9 96//9
f 103//10 102//10 101//10
f 90//10 102//10 103//10
f 104//11 105//11 98//11
f 105//11 92//11 98//11
f 97//3 104//3 98//3
f 106//4 93//4 92//4
f 105//4 106//4 92//4
f 90//12 107//12 102//12
f 107//3 100//3 102//3
f 108//4 109//4 90//4
f 94//4 108//4 90//4
f 109//12 107//12 90//12
f 106//13 105//13 104//13
f 97//13 106//13 104//13
f 109//14 100//14 107//14
f 108//14 100//14 109//14
f 110//15 106//15 97//15
f 111//15 110//15 97//15
f 112//3 111//3 97//3
f 99//3 112//3 97//3
f 110//4 93//4 106//4
f 108//16 113//16 100//16
f 114//3 99//3 100//3
f 113//3 114//3 100//3
f 94//4 115//4 108//4
f 115//16 113//16 108//16
f 93//17 110//17 111//17
f 112//17 93//17 111//17
f 115//18 114//18 113//18
f 94//18 114//18 115//18
f 116//19 93//19 112//19
f 117//19 116//19 112//19
f 99//3 117//3 112//3
f 94//20 118//20 114//20
f 118//3 99//3 114//3
f 119//4 94//4 93//4
f 116//4 119//4 93//4
f 119//4 120//4 94//4
f 120//20 118//20 94//20
f 119//21 116//21 117//21
f 99//21 119//21 117//21
f 120//22 99//22 118//22
f 119//22 99//22 120//22
f 121//4 122//4 123//4
f 124//4 121//4 123//4
f 125//4 124//4 123//4
f 122//1 126//1 123//1
f 126//2 127//2 123//2
f 127//2 125//2 123//2
f 122//1 128//1 126//1
f 129//3 127//3 126//3
f 130//3 129//3 126//3
f 131//3 130//3 126//3
f 132//3 131//3 126//3
f 133//3 134//3 126//3
f 128//3 133//3 126//3
f 134//3 132//3 126//3
f 129//5 125//5 127//5
f 129//5 124//5 125//5
f 121//6 128//6 122//6
f 121//6 133//6 128//6
f 135//7 124//7 129//7
f 130//3 135//3 129//3
f 136//4 121//4 124//4
f 137//4 136//4 124//4
f 138//4 139//4 124//4
f 140//4 138//4 124//4
f 139//4 137//4 124//4
f 135//7 140//7 124//7
f 141//8 142//8 133//8
f 121//8 141//8 133//8
f 142//3 134//3 133//3
f 143//4 141//4 121//4
f 136//4 143//4 121//4
f 143//10 142//10 141//10
f 130//9 140//9 135//9
f 130//9 138//9 140//9
f 143//10 134//10 142//10
f 144//11 138//11 130//11
f 145//3 144//3 130//3
f 131//3 145//3 130//3
f 146//4 139//4 138//4
f 144//11 146//11 138//11
f 147//12 148//12 134//12
f 143//12 147//12 134//12
f 149//3 132//3 134//3
f 148//3 149//3 134//3
f 136//4 147//4 143//4
f 145//13 146//13 144//13
f 145//13 139//13 146//13
f 136//14 149//14 148//14
f 147//14 136//14 148//14
f 150//15 139//15 145//15
f 131//3 150//3 145//3
f 151//4 137//4 139//4
f 152//24 151//4 139//4
f 150//15 152//15 139//15
f 153//16 154//16 149//16
f 136//16 153//16 149//16
f 154//3 132//3 149//3
f 137//4 155//4 136//4
f 155//4 153//4 136//4
f 150//17 131//17 152//17
f 131//17 151//17 152//17
f 155//18 154//18 153//18
f 155//18 132//18 154//18
f 156//19 151//19 131//19
f 132//3 157//3 131//3
f 157//3 156//3 131//3
f 158//4 137//4 151//4
f 156//19 158//19 151//19
f 159//20 160//20 132//20
f 155//20 159//20 132//20
f 160//3 157//3 132//3
f 137//4 159//4 155//4
f 157//21 158//21 156//21
f 157//21 137//21 158//21
f 137//22 157//22 160//22
f 159//22 137//22 160//22
f 161//25 162//26 163//27
f 162//28 164//29 163//30
f 164//29 165//31 163//30
f 165//32 166//33 163//34
f 166//35 167//36 163//37
f 167//38 161//25 163//27
f 168//39 167//36 166//35
f 169//40 168//40 166//40
f 170//41 169//41 166//41
f 165//32 170//42 166//33
f 171//43 172//43 162//43
f 161//44 171//45 162//46
f 173//47 164//48 162//49
f 172//43 173//43 162//43
f 174//50 175//50 167//50
f 168//51 174//51 167//51
f 175//52 161//52 167//52
f 164//53 176//53 165//53
f 176//54 177//54 165//54
f 177//55 170//55 165//55
f 178//56 174//56 168//56
f 169//57 178//57 168//57
f 179//58 169//58 170//58
f 177//59 179//59 170//59
f 180//60 171//45 161//44
f 175//61 180//61 161//61
f 173//47 181//62 164//48
f 181//63 176//63 164//63
f 182//64 175//64 174//64
f 178//65 183//65 174//65
f 183//66 182//66 174//66
f 184//67 179//67 177//67
f 185//68 184//68 177//68
f 176//69 185//69 177//69
f 182//64 180//64 175//64
f 181//69 185//69 176//69
f 186//70 171//45 180//60
f 182//71 186//71 180//71
f 173//47 187//72 181//62
f 187//73 185//73 181//73
f 179//74 188//75 169//76
f 188//77 178//78 169//79
f 188//77 189//80 178//78
f 189//81 190//81 178//81
f 190//82 183//82 178//82
f 191//83 192//83 179//83
f 184//84 191//84 179//84
f 192//85 188//75 179//74
f 193//86 171//45 186//70
f 182//87 193//88 186//89
f 173//47 194//86 187//72
f 194//90 185//91 187//92
f 183//93 195//93 182//93
f 195//94 193//88 182//87
f 196//95 184//95 185//95
f 194//90 196//96 185//91
f 197//97 173//97 172//97
f 171//97 197//97 172//97
f 192//98 198//99 188//100
f 198//101 189//102 188//103
f 195//104 199//104 193//104
f 199//104 171//104 193//104
f 200//97 197//97 171//97
f 199//3 201//3 171//3
f 201//3 200//3 171//3
f 197//97 202//97 173//97
f 203//104 194//104 173//104
f 202//4 204//4 173//4
f 204//4 203//4 173//4
f 203//104 196//104 194//104
f 190//105 205//105 183//105
f 205//106 206//106 183//106
f 206//107 207//107 183//107
f 207//108 195//108 183//108
f 196//109 208//109 184//109
f 208//110 209//110 184//110
f 209//111 210//111 184//111
f 210//112 191//112 184//112
f 211//113 212//113 189//102
f 212//114 190//114 189//114
f 198//101 211//113 189//102
f 213//115 214//115 192//98
f 214//115 198//99 192//98
f 191//116 213//116 192//116
f 215//117 216//117 190//117
f 216//118 205//118 190//118
f 212//119 215//119 190//119
f 210//120 217//120 191//120
f 217//121 218//121 191//121
f 218//122 213//122 191//122
f 195//123 201//123 199//123
f 204//123 196//123 203//123
f 207//123 201//123 195//123
f 204//123 208//123 196//123
f 219//124 201//124 207//124
f 206//124 219//124 207//124
f 219//3 220//3 201//3
f 221//3 200//3 201//3
f 220//3 221//3 201//3
f 202//4 222//4 204//4
f 222//4 223//4 204//4
f 223//4 224//4 204//4
f 224//124 208//124 204//124
f 224//124 209//124 208//124
f 216//125 206//126 205//127
f 209//128 217//129 210//130
f 216//125 225//131 206//126
f 220//132 219//132 206//132
f 225//132 220//132 206//132
f 223//132 209//132 224//132
f 226//133 217//129 209//128
f 223//132 226//132 209//132
f 216//134 227//134 225//134
f 227//3 228//3 225//3
f 229//135 220//135 225//135
f 228//135 229//135 225//135
f 229//3 221//3 220//3
f 222//4 230//4 223//4
f 230//135 226//135 223//135
f 231//4 232//4 226//4
f 232//136 217//136 226//136
f 230//135 231//135 226//135
f 233//137 234//138 198//139
f 234//140 235//141 198//142
f 235//141 211//143 198//142
f 214//144 233//137 198//139
f 215//145 236//145 216//145
f 237//146 227//146 216//146
f 236//147 237//147 216//147
f 232//148 238//148 217//148
f 238//149 239//149 217//149
f 239//150 218//150 217//150
f 233//137 240//151 234//138
f 240//152 235//141 234//140
f 235//141 212//153 211//143
f 213//154 233//137 214//144
f 241//155 242//156 235//155
f 240//157 241//155 235//155
f 242//153 212//153 235//141
f 243//158 244//159 233//159
f 244//159 240//160 233//159
f 213//154 243//154 233//137
f 242//153 245//153 212//153
f 245//153 246//153 212//153
f 247//161 248//161 212//161
f 248//162 215//162 212//162
f 246//163 247//163 212//163
f 249//164 250//164 213//164
f 250//165 251//166 213//154
f 251//166 243//154 213//154
f 218//167 252//167 213//167
f 252//168 249//168 213//168
f 241//169 245//169 242//169
f 251//170 244//170 243//170
f 248//171 236//171 215//171
f 239//172 252//172 218//172
f 244//173 253//174 240//175
f 253//176 241//177 240//178
f 241//179 246//180 245//181
f 250//165 244//182 251//166
f 253//176 254//183 241//177
f 254//184 246//180 241//179
f 250//185 255//185 244//185
f 255//186 253//174 244//173
f 228//187 221//187 229//187
f 222//187 231//187 230//187
f 227//3 256//3 228//3
f 256//187 221//187 228//187
f 257//4 232//4 231//4
f 222//187 257//187 231//187
f 254//188 258//188 246//188
f 258//163 247//163 246//163
f 259//189 255//189 250//189
f 249//164 259//164 250//164
f 247//190 260//190 248//190
f 260//190 236//190 248//190
f 261//191 249//191 252//191
f 239//191 261//191 252//191
f 227//3 262//3 256//3
f 263//192 221//192 256//192
f 262//192 263//192 256//192
f 263//3 200//3 221//3
f 202//4 264//4 222//4
f 264//192 257//192 222//192
f 265//4 232//4 257//4
f 264//192 265//192 257//192
f 266//193 267//194 262//195
f 267//194 268//196 262//195
f 227//3 266//3 262//3
f 200//197 263//197 262//197
f 268//197 200//197 262//197
f 202//197 265//197 264//197
f 269//198 270//199 265//200
f 271//4 232//4 265//4
f 270//199 271//201 265//200
f 202//197 269//197 265//197
f 200//202 272//202 197//202
f 272//202 202//202 197//202
f 268//202 267//202 200//202
f 267//202 272//202 200//202
f 272//202 270//202 202//202
f 270//202 269//202 202//202
f 273//3 266//3 227//3
f 237//203 273//204 227//205
f 271//4 274//4 232//4
f 274//206 238//207 232//208
f 236//209 275//209 237//209
f 275//210 276//210 237//210
f 276//204 273//204 237//203
f 274//206 277//206 238//207
f 277//211 278//211 238//211
f 278//212 239//212 238//212
f 260//213 279//213 236//213
f 279//213 275//213 236//213
f 278//214 280//214 239//214
f 280//214 261//214 239//214
f 247//213 279//213 260//213
f 280//214 249//214 261//214
f 281//215 279//215 247//215
f 258//216 281//216 247//216
f 280//217 282//217 249//217
f 282//218 259//218 249//218
f 283//219 284//220 253//221
f 284//222 254//222 253//222
f 285//223 283//224 253//225
f 255//226 285//226 253//226
f 284//227 258//227 254//227
f 259//228 285//228 255//228
f 284//220 286//229 258//229
f 286//230 281//230 258//230
f 287//231 285//223 259//231
f 282//232 287//232 259//232
f 279//213 288//213 275//213
f 288//233 276//234 275//235
f 289//214 280//214 278//214
f 277//236 289//237 278//238
f 281//239 288//240 279//241
f 289//242 282//243 280//244
f 290//245 284//220 283//219
f 285//223 290//246 283//224
f 291//247 286//229 284//220
f 290//245 291//247 284//220
f 292//248 290//246 285//223
f 287//231 292//248 285//223
f 291//230 281//230 286//230
f 282//232 292//232 287//232
f 293//202 272//202 267//202
f 266//193 293//249 267//194
f 294//202 295//202 272//202
f 295//202 270//202 272//202
f 293//202 294//202 272//202
f 295//250 271//201 270//199
f 296//251 293//249 266//193
f 273//3 296//3 266//3
f 297//4 274//4 271//4
f 295//250 297//252 271//201
f 276//204 298//204 273//204
f 298//3 296//3 273//3
f 297//4 299//4 274//4
f 299//206 277//206 274//206
f 300//253 298//254 276//255
f 301//256 300//257 276//234
f 288//233 301//256 276//234
f 299//258 302//259 277//260
f 303//261 289//237 277//236
f 302//262 303//263 277//264
f 281//239 301//265 288//240
f 303//266 282//243 289//242
f 304//267 291//268 290//269
f 292//270 304//271 290//272
f 305//273 281//273 291//273
f 306//273 305//273 291//273
f 307//273 306//273 291//273
f 308//274 307//274 291//274
f 304//267 308//275 291//268
f 309//276 304//271 292//270
f 310//277 309//277 292//277
f 311//278 312//278 292//278
f 312//278 310//278 292//278
f 282//278 311//278 292//278
f 305//279 301//265 281//239
f 303//266 311//280 282//243
f 305//279 313//281 301//265
f 313//282 300//283 301//282
f 302//262 314//284 303//263
f 314//285 311//280 303//266
f 306//286 313//281 305//279
f 314//285 312//287 311//280
f 315//288 313//281 306//286
f 307//289 315//288 306//286
f 316//290 310//291 312//287
f 314//285 316//290 312//287
f 315//292 300//283 313//282
f 302//262 316//293 314//284
f 317//202 294//202 293//202
f 296//251 317//294 293//249
f 318//202 319//202 294//202
f 320//202 318//202 294//202
f 317//202 320//202 294//202
f 319//202 321//202 294//202
f 321//202 295//202 294//202
f 321//295 297//252 295//250
f 322//296 317//294 296//251
f 298//3 322//3 296//3
f 323//4 299//4 297//4
f 321//295 323//297 297//252
f 324//3 322//3 298//3
f 300//253 324//298 298//254
f 323//4 325//4 299//4
f 325//299 302//259 299//258
f 326//300 324//301 300//302
f 315//292 326//303 300//283
f 325//304 327//305 302//306
f 327//307 316//293 302//262
f 307//308 328//308 315//308
f 328//309 329//309 315//309
f 329//310 326//310 315//310
f 330//311 310//311 316//311
f 331//312 330//312 316//312
f 327//313 331//313 316//313
f 308//314 328//314 307//314
f 330//315 309//315 310//315
f 332//316 333//316 308//316
f 333//314 328//314 308//314
f 334//317 332//317 308//317
f 304//318 334//318 308//318
f 335//319 334//319 309//319
f 334//320 304//320 309//320
f 330//315 336//315 309//315
f 336//321 335//321 309//321
f 337//322 319//323 318//324
f 320//323 338//325 318//324
f 338//325 339//326 318//324
f 339//326 337//322 318//324
f 322//327 340//327 317//327
f 340//327 320//327 317//327
f 340//328 338//329 320//330
f 337//331 341//332 319//333
f 341//327 321//327 319//327
f 341//327 323//327 321//327
f 342//334 329//334 328//334
f 343//335 342//335 328//335
f 333//336 343//336 328//336
f 344//337 345//337 330//337
f 331//338 344//338 330//338
f 345//339 336//339 330//339
f 324//3 346//3 322//3
f 346//340 347//340 322//340
f 347//340 340//340 322//340
f 347//3 348//341 340//328
f 348//341 338//329 340//328
f 349//342 350//4 341//332
f 337//331 349//342 341//332
f 350//340 323//340 341//340
f 350//340 351//340 323//340
f 351//4 325//4 323//4
f 352//3 353//3 324//3
f 326//300 352//343 324//301
f 354//3 346//3 324//3
f 353//3 354//3 324//3
f 351//4 355//4 325//4
f 356//344 327//305 325//304
f 355//4 357//4 325//4
f 357//4 356//4 325//4
f 329//345 342//345 326//345
f 342//345 358//345 326//345
f 358//346 359//347 326//348
f 359//349 352//349 326//349
f 356//350 360//350 327//350
f 360//351 361//352 327//353
f 361//354 344//354 327//354
f 344//354 331//354 327//354
f 362//355 342//355 343//355
f 333//355 363//355 343//355
f 363//355 362//355 343//355
f 344//356 364//356 345//356
f 365//356 336//356 345//356
f 364//356 365//356 345//356
f 332//357 366//357 333//357
f 366//358 363//359 333//360
f 365//361 367//362 336//363
f 367//364 335//364 336//364
f 354//365 348//365 346//365
f 348//365 347//365 346//365
f 349//365 351//365 350//365
f 349//365 355//365 351//365
f 368//366 366//366 332//366
f 369//366 368//366 332//366
f 370//367 369//368 332//369
f 334//370 370//367 332//369
f 371//371 372//372 335//373
f 372//372 334//374 335//373
f 373//375 371//375 335//375
f 367//375 373//375 335//375
f 374//376 370//367 334//370
f 372//372 374//377 334//374
f 375//355 358//355 362//355
f 358//355 342//355 362//355
f 363//355 375//355 362//355
f 376//356 365//356 364//356
f 361//356 376//356 364//356
f 344//356 361//356 364//356
f 369//368 370//367 374//376
f 372//372 371//371 374//377
f 371//371 377//378 374//377
f 377//379 369//368 374//376
f 353//380 378//380 354//380
f 378//380 348//380 354//380
f 378//3 379//381 348//341
f 379//381 338//329 348//341
f 380//382 381//4 349//342
f 337//331 380//382 349//342
f 381//380 355//380 349//380
f 381//380 357//380 355//380
f 382//366 366//366 368//366
f 369//366 383//366 368//366
f 383//366 382//366 368//366
f 384//375 371//375 373//375
f 385//375 384//375 373//375
f 367//375 385//375 373//375
f 377//379 383//383 369//368
f 384//384 377//378 371//371
f 382//385 363//359 366//358
f 365//361 385//386 367//362
f 382//385 375//387 363//359
f 376//388 385//386 365//361
f 386//389 375//389 382//389
f 387//390 386//390 382//390
f 383//391 387//392 382//393
f 376//394 388//394 385//394
f 389//395 384//396 385//397
f 388//398 389//398 385//398
f 352//3 390//3 353//3
f 390//399 379//399 353//399
f 379//399 378//399 353//399
f 380//399 357//399 381//399
f 380//399 391//399 357//399
f 391//4 356//4 357//4
f 386//400 358//400 375//400
f 361//401 388//401 376//401
f 387//392 358//402 386//403
f 361//404 389//395 388//405
f 352//3 392//3 390//3
f 392//406 393//406 390//406
f 393//406 379//406 390//406
f 393//407 338//329 379//381
f 337//331 394//408 380//382
f 394//406 391//406 380//406
f 394//406 395//406 391//406
f 395//4 356//4 391//4
f 396//409 397//410 392//411
f 352//3 398//3 392//3
f 398//412 396//409 392//411
f 338//413 393//413 392//413
f 397//414 338//414 392//414
f 337//413 395//413 394//413
f 399//4 356//4 395//4
f 400//415 401//416 395//417
f 401//416 399//418 395//417
f 337//419 400//419 395//419
f 396//420 338//420 397//420
f 337//421 401//421 400//421
f 396//422 402//422 338//422
f 402//423 403//424 338//425
f 403//424 339//426 338//425
f 403//424 404//423 337//427
f 404//428 401//428 337//428
f 339//426 403//424 337//427
f 387//392 405//429 358//402
f 405//430 406//430 358//430
f 406//431 407//431 358//431
f 407//432 359//347 358//346
f 408//433 389//395 361//404
f 409//434 408//434 361//434
f 410//435 409//435 361//435
f 360//351 410//436 361//352
f 383//391 405//429 387//392
f 408//433 384//396 389//395
f 407//437 411//437 359//437
f 411//438 352//438 359//438
f 356//439 412//439 360//439
f 412//440 410//440 360//440
f 383//430 406//430 405//430
f 409//434 384//434 408//434
f 411//3 398//3 352//3
f 399//4 412//4 356//4
f 413//441 406//441 383//441
f 377//442 413//442 383//442
f 413//443 377//443 384//443
f 409//444 413//444 384//444
f 414//445 411//445 407//445
f 406//446 414//446 407//446
f 412//447 415//447 410//447
f 415//448 409//448 410//448
f 416//449 417//449 411//449
f 414//450 416//450 411//450
f 417//451 398//451 411//451
f 418//452 419//452 412//452
f 419//453 415//453 412//453
f 399//454 418//454 412//454
f 417//455 396//455 398//455
f 401//456 418//456 399//456
f 417//457 402//457 396//457
f 404//458 418//458 401//458
f 409//459 420//460 413//461
f 420//460 406//462 413//461
f 420//460 414//463 406//462
f 415//463 420//460 409//459
f 421//464 416//464 414//464
f 420//464 421//464 414//464
f 415//464 421//464 420//464
f 419//464 421//464 415//464
f 402//465 416//465 403//465
f 416//465 421//465 403//465
f 421//465 419//465 403//465
f 419//465 404//465 403//465
f 417//466 416//466 402//466
f 419//467 418//467 404//467
f 422//468 423//468 424//468
f 423//468 425//469 424//468
f 425//470 426//470 424//470
f 423//471 427//471 425//471
f 427//472 428//472 425//472
f 429//473 430//473 425//473
f 431//470 426//470 425//470
f 430//474 431//474 425//474
f 428//475 429//475 425//475
f 431//476 432//476 426//476
f 433//476 432//476 431//476
f 430//477 433//478 431//479
f 434//480 429//480 428//480
f 427//481 435//481 428//481
f 435//482 434//482 428//482
f 434//483 436//483 429//483
f 436//484 430//484 429//484
f 432//485 433//485 422//485
f 433//485 423//486 422//485
f 436//487 437//487 430//487
f 437//488 433//478 430//477
f 435//489 436//489 434//489
f 436//490 435//491 423//492
f 435//493 427//493 423//493
f 433//494 436//490 423//492
f 437//495 436//495 433//495
f 438//496 439//496 440//496
f 439//497 441//497 440//497
f 442//498 438//498 440//498
f 443//499 444//499 438//499
f 444//500 445//500 438//500
f 445//501 439//501 438//501
f 442//498 446//498 438//498
f 446//502 447//502 438//502
f 447//503 443//503 438//503
f 448//504 446//504 442//504
f 448//504 449//504 446//504
f 449//505 447//506 446//507
f 443//508 450//508 444//508
f 451//509 445//509 444//509
f 450//510 451//510 444//510
f 452//511 450//511 443//511
f 447//512 452//512 443//512
f 449//513 448//513 441//513
f 439//513 449//513 441//513
f 449//505 453//514 447//506
f 453//515 452//515 447//515
f 452//516 451//516 450//516
f 452//517 449//518 439//519
f 451//520 452//517 439//519
f 445//521 451//521 439//521
f 452//522 453//522 449//522
