# Blender v3.0.1 OBJ File: ''
# www.blender.org
mtllib Fake_blade.mtl
o Fake_Blade
v -673.561035 309.373260 1200.000000
v -673.561035 309.373260 0.000000
v -762.163086 321.829254 0.000000
v -762.163086 321.829254 1200.000000
v -851.471191 327.265411 0.000000
v -851.471191 327.265411 1200.000000
v -940.929932 325.647980 0.000000
v -940.929932 325.647980 1200.000000
v -1029.983154 316.987030 0.000000
v -1029.983154 316.987030 1200.000000
v -1118.077026 301.336365 0.000000
v -1118.077026 301.336365 1200.000000
v -1204.663940 278.793304 0.000000
v -1204.663940 278.793304 1200.000000
v -1289.205444 249.498047 0.000000
v -1289.205444 249.498047 1200.000000
v -1371.176025 213.632721 0.000000
v -1371.176025 213.632721 1200.000000
v -1450.065674 171.420334 0.000000
v -1450.065674 171.420334 1200.000000
v -1451.392334 170.489471 0.000000
v -1451.392334 170.489471 1200.000000
v -1452.551147 169.356583 0.000000
v -1452.551147 169.356583 1200.000000
v -1453.511719 168.051407 0.000000
v -1453.511719 168.051407 1200.000000
v -1454.248901 166.608231 0.000000
v -1454.248901 166.608231 1200.000000
v -1454.743408 165.064911 0.000000
v -1454.743408 165.064911 1200.000000
v -1454.982056 163.462006 0.000000
v -1454.982056 163.462006 1200.000000
v -1454.958740 161.841583 0.000000
v -1454.958740 161.841583 1200.000000
v -1454.673950 160.246216 0.000000
v -1454.673950 160.246216 1200.000000
v -1454.135376 158.717773 0.000000
v -1454.135376 158.717773 1200.000000
v -1453.356812 157.296402 0.000000
v -1453.356812 157.296402 1200.000000
v -1452.359131 156.019424 0.000000
v -1452.359131 156.019424 1200.000000
v -1451.168213 154.920364 0.000000
v -1451.168213 154.920364 1200.000000
v -1449.815430 154.028076 0.000000
v -1449.815430 154.028076 1200.000000
v -1367.214111 112.592972 0.000000
v -1367.214111 112.592972 1200.000000
v -1281.774414 77.380630 0.000000
v -1281.774414 77.380630 1200.000000
v -1193.964478 48.583939 0.000000
v -1193.964478 48.583939 1200.000000
v -1104.265137 26.360645 0.000000
v -1104.265137 26.360645 1200.000000
v -1013.167847 10.832474 0.000000
v -1013.167847 10.832474 1200.000000
v -921.171570 2.084479 0.000000
v -921.171570 2.084479 1200.000000
v -828.780212 0.164598 0.000000
v -828.780212 0.164598 1200.000000
v -736.499939 5.083337 0.000000
v -736.499939 5.083337 1200.000000
v -644.836182 16.813740 0.000000
v -644.836182 16.813740 1200.000000
v -2.337369 161.971008 1200.000000
v -633.372131 19.060209 1200.000000
v -2.337369 161.971008 0.000000
v -633.372131 19.060209 0.000000
v -0.000000 164.896912 0.000000
v -0.000000 174.666199 0.000000
v -0.000000 164.896912 1200.000000
v -0.000000 174.666199 1200.000000
v -2.825982 177.661148 1200.000000
v -2.825982 177.661148 0.000000
v -76.017998 184.209290 1200.000000
v -76.017998 184.209290 0.000000
v -148.659470 195.307327 1200.000000
v -148.659470 195.307327 0.000000
v -220.467819 210.912079 1200.000000
v -220.467819 210.912079 0.000000
v -291.163757 230.962860 1200.000000
v -291.163757 230.962860 0.000000
v -312.123291 236.390640 0.000000
v -312.123291 236.390640 1200.000000
v -0.167923 175.655823 1200.000000
v -0.373393 176.115662 1200.000000
v -1.847772 177.436111 1200.000000
v -0.168768 163.904892 1200.000000
v -1.856039 162.123596 1200.000000
v -0.042493 164.393784 1200.000000
v -0.000000 174.666199 1200.000000
v -2.327398 177.589828 1200.000000
v -0.042279 175.168091 1200.000000
v -0.652895 176.534653 1200.000000
v -0.998552 176.900970 1200.000000
v -1.400622 177.204315 1200.000000
v -1.407117 162.354736 1200.000000
v -1.003318 162.657883 1200.000000
v -0.375248 163.444107 1200.000000
v -0.656083 163.024475 1200.000000
v -1.847772 177.436111 0.000000
v -0.000000 174.666199 0.000000
v -2.327398 177.589828 0.000000
v -0.000000 164.896912 0.000000
v -1.856039 162.123596 0.000000
v -1.400622 177.204315 0.000000
v -0.998552 176.900970 0.000000
v -0.652895 176.534653 0.000000
v -0.373393 176.115662 0.000000
v -0.167923 175.655823 0.000000
v -0.042279 175.168091 0.000000
v -0.656083 163.024475 0.000000
v -1.003318 162.657883 0.000000
v -0.375248 163.444107 0.000000
v -0.168768 163.904892 0.000000
v -0.042493 164.393784 0.000000
v -1.407117 162.354736 0.000000
v -0.000000 164.896912 1200.000000
vn 0.1392 0.9903 0.0000
vn 0.0608 0.9982 0.0000
vn -0.0181 0.9998 0.0000
vn -0.0968 0.9953 0.0000
vn -0.1749 0.9846 0.0000
vn -0.2520 0.9677 0.0000
vn -0.3274 0.9449 0.0000
vn -0.4008 0.9161 0.0000
vn -0.4718 0.8817 0.0000
vn -0.5744 0.8186 0.0000
vn -0.6991 0.7150 0.0000
vn -0.6990 0.7151 0.0000
vn -0.8054 0.5928 0.0000
vn -0.8054 0.5927 0.0000
vn -0.8905 0.4551 0.0000
vn -0.8906 0.4547 0.0000
vn -0.9523 0.3051 0.0000
vn -0.9523 0.3053 0.0000
vn -0.9891 0.1473 0.0000
vn -0.9891 0.1472 0.0000
vn -0.9999 -0.0144 0.0000
vn -0.9845 -0.1756 0.0000
vn -0.9844 -0.1759 0.0000
vn -0.9432 -0.3323 0.0000
vn -0.8770 -0.4805 0.0000
vn -0.8771 -0.4804 0.0000
vn -0.7880 -0.6157 0.0000
vn -0.7881 -0.6156 0.0000
vn -0.6782 -0.7349 0.0000
vn -0.5506 -0.8348 0.0000
vn -0.4484 -0.8938 0.0000
vn -0.3810 -0.9246 0.0000
vn -0.3116 -0.9502 0.0000
vn -0.2405 -0.9707 0.0000
vn -0.1680 -0.9858 0.0000
vn -0.0947 -0.9955 0.0000
vn -0.0208 -0.9998 0.0000
vn 0.0532 -0.9986 0.0000
vn 0.1269 -0.9919 0.0000
vn 0.2209 -0.9753 0.0000
vn 1.0000 0.0000 0.0000
vn 0.0891 0.9960 0.0000
vn 0.1510 0.9885 0.0000
vn 0.2124 0.9772 0.0000
vn 0.2729 0.9621 0.0000
vn 0.1979 0.9802 0.0000
vn 0.0000 0.0000 1.0000
vn 0.0001 0.0000 1.0000
vn -0.0001 0.0000 1.0000
vn 0.0002 0.0000 1.0000
vn -0.0002 0.0000 1.0000
vn 0.0000 0.0000 -1.0000
vn 0.1923 -0.9813 0.0000
vn 0.2507 0.9681 0.0000
vn 0.9965 -0.0842 0.0000
vn 0.9682 -0.2501 0.0000
vn 0.9126 -0.4089 0.0000
vn 0.8311 -0.5562 0.0000
vn 0.7260 -0.6877 0.0000
vn 0.6004 -0.7997 0.0000
vn 0.4578 -0.8891 0.0000
vn 0.3022 -0.9532 0.0000
vn 0.9965 0.0839 0.0000
vn 0.9684 0.2495 0.0000
vn 0.9130 0.4080 0.0000
vn 0.8319 0.5549 0.0000
vn 0.7273 0.6863 0.0000
vn 0.6023 0.7983 0.0000
vn 0.4602 0.8878 0.0000
vn 0.3052 0.9523 0.0000
vn 0.1416 0.9899 0.0000
usemtl None
s off
f 1//1 2//1 3//1
f 1//1 3//1 4//1
f 4//2 3//2 5//2
f 4//2 5//2 6//2
f 6//3 5//3 7//3
f 6//3 7//3 8//3
f 8//4 7//4 9//4
f 8//4 9//4 10//4
f 10//5 9//5 11//5
f 10//5 11//5 12//5
f 12//6 11//6 13//6
f 12//6 13//6 14//6
f 14//7 13//7 15//7
f 14//7 15//7 16//7
f 16//8 15//8 17//8
f 16//8 17//8 18//8
f 18//9 17//9 19//9
f 18//9 19//9 20//9
f 20//10 19//10 21//10
f 20//10 21//10 22//10
f 22//11 21//11 23//11
f 22//12 23//12 24//12
f 24//13 23//13 25//13
f 24//14 25//14 26//14
f 26//15 25//15 27//15
f 26//16 27//16 28//16
f 28//17 27//17 29//17
f 28//18 29//18 30//18
f 30//19 29//19 31//19
f 30//20 31//20 32//20
f 32//21 31//21 33//21
f 32//21 33//21 34//21
f 34//22 33//22 35//22
f 34//23 35//23 36//23
f 36//24 35//24 37//24
f 36//24 37//24 38//24
f 38//25 37//25 39//25
f 38//26 39//26 40//26
f 40//27 39//27 41//27
f 40//28 41//28 42//28
f 42//29 41//29 43//29
f 42//29 43//29 44//29
f 44//30 43//30 45//30
f 44//30 45//30 46//30
f 46//31 45//31 47//31
f 46//31 47//31 48//31
f 48//32 47//32 49//32
f 48//32 49//32 50//32
f 50//33 49//33 51//33
f 50//33 51//33 52//33
f 52//34 51//34 53//34
f 52//34 53//34 54//34
f 54//35 53//35 55//35
f 54//35 55//35 56//35
f 56//36 55//36 57//36
f 56//36 57//36 58//36
f 58//37 57//37 59//37
f 58//37 59//37 60//37
f 60//38 59//38 61//38
f 60//38 61//38 62//38
f 62//39 61//39 63//39
f 62//39 63//39 64//39
f 65//40 66//40 67//40
f 67//40 66//40 68//40
f 69//41 70//41 71//41
f 71//41 70//41 72//41
f 73//42 74//42 75//42
f 75//42 74//42 76//42
f 75//43 76//43 77//43
f 77//43 76//43 78//43
f 77//44 78//44 79//44
f 79//44 78//44 80//44
f 79//45 80//45 81//45
f 81//45 80//45 82//45
f 83//46 2//46 84//46
f 84//46 2//46 1//46
f 66//47 65//47 73//47
f 73//47 75//47 66//47
f 66//47 75//47 77//47
f 66//47 77//47 79//47
f 85//47 86//47 87//47
f 88//47 65//47 89//47
f 88//47 90//47 65//47
f 65//47 90//47 71//47
f 65//47 71//47 73//47
f 73//47 71//47 91//47
f 73//47 91//47 92//47
f 92//47 91//47 87//47
f 87//47 91//47 93//47
f 87//47 93//47 85//47
f 86//47 94//47 87//47
f 87//47 94//47 95//47
f 87//47 95//47 96//47
f 89//47 97//47 88//47
f 88//47 97//47 98//47
f 88//47 98//47 99//47
f 99//47 98//47 100//47
f 79//47 81//47 66//47
f 66//47 81//47 84//47
f 66//47 84//47 64//47
f 64//47 84//47 1//47
f 64//47 1//47 62//47
f 62//47 1//47 4//47
f 62//47 4//47 60//47
f 60//47 4//47 6//47
f 60//47 6//47 58//47
f 58//47 6//47 8//47
f 58//47 8//47 56//47
f 56//47 8//47 10//47
f 56//47 10//47 54//47
f 54//47 10//47 52//47
f 52//47 10//47 12//47
f 52//47 12//47 50//47
f 50//47 12//47 14//47
f 50//47 14//47 48//47
f 24//47 26//47 46//47
f 24//47 46//47 22//47
f 14//47 16//47 48//47
f 48//47 16//47 18//47
f 48//47 18//47 46//47
f 46//47 18//47 20//47
f 46//47 20//47 22//47
f 26//48 28//48 46//48
f 46//49 28//49 30//49
f 46//47 30//47 32//47
f 40//47 42//47 38//47
f 38//47 42//47 36//47
f 32//50 34//50 46//50
f 46//51 34//51 36//51
f 46//47 36//47 44//47
f 44//47 36//47 42//47
f 80//52 78//52 68//52
f 68//52 78//52 76//52
f 68//52 76//52 67//52
f 67//52 76//52 74//52
f 101//52 102//52 103//52
f 103//52 102//52 74//52
f 74//52 102//52 67//52
f 67//52 102//52 104//52
f 67//52 104//52 105//52
f 2//52 83//52 68//52
f 68//52 83//52 82//52
f 68//52 82//52 80//52
f 101//52 106//52 102//52
f 102//52 106//52 107//52
f 102//52 107//52 108//52
f 108//52 109//52 102//52
f 102//52 109//52 110//52
f 102//52 110//52 111//52
f 112//52 113//52 114//52
f 114//52 113//52 115//52
f 104//52 116//52 105//52
f 105//52 116//52 115//52
f 105//52 115//52 117//52
f 117//52 115//52 113//52
f 68//52 63//52 2//52
f 2//52 63//52 61//52
f 2//52 61//52 3//52
f 3//52 61//52 59//52
f 3//52 59//52 5//52
f 5//52 59//52 7//52
f 59//52 57//52 7//52
f 7//52 57//52 55//52
f 7//52 55//52 9//52
f 9//52 55//52 53//52
f 9//52 53//52 11//52
f 11//52 53//52 51//52
f 11//52 51//52 13//52
f 13//52 51//52 49//52
f 13//52 49//52 15//52
f 15//52 49//52 47//52
f 15//52 47//52 17//52
f 17//52 47//52 45//52
f 17//52 45//52 19//52
f 31//52 45//52 33//52
f 33//52 45//52 35//52
f 45//52 43//52 35//52
f 35//52 43//52 41//52
f 35//52 41//52 37//52
f 37//52 41//52 39//52
f 31//52 29//52 45//52
f 45//52 29//52 27//52
f 45//52 27//52 25//52
f 25//52 23//52 45//52
f 45//52 23//52 21//52
f 45//52 21//52 19//52
f 63//53 68//53 64//53
f 64//53 68//53 66//53
f 82//54 83//54 81//54
f 81//54 83//54 84//54
f 104//55 118//55 90//55
f 104//55 90//55 116//55
f 116//56 90//56 88//56
f 116//56 88//56 115//56
f 115//57 88//57 99//57
f 115//57 99//57 114//57
f 114//58 99//58 100//58
f 114//58 100//58 112//58
f 112//59 100//59 98//59
f 112//59 98//59 113//59
f 113//60 98//60 97//60
f 113//60 97//60 117//60
f 117//61 97//61 89//61
f 117//61 89//61 105//61
f 105//62 89//62 65//62
f 105//62 65//62 67//62
f 91//63 102//63 111//63
f 91//63 111//63 93//63
f 93//64 111//64 110//64
f 93//64 110//64 85//64
f 85//65 110//65 109//65
f 85//65 109//65 86//65
f 86//66 109//66 108//66
f 86//66 108//66 94//66
f 94//67 108//67 107//67
f 94//67 107//67 95//67
f 95//68 107//68 106//68
f 95//68 106//68 96//68
f 96//69 106//69 101//69
f 96//69 101//69 87//69
f 87//70 101//70 103//70
f 87//70 103//70 92//70
f 92//71 103//71 74//71
f 92//71 74//71 73//71
